<svg id="SvgjsSvg1001" width="288" height="288" xmlns="http://www.w3.org/2000/svg" version="1.1" xmlns:xlink="http://www.w3.org/1999/xlink" xmlns:svgjs="http://svgjs.com/svgjs"><defs id="SvgjsDefs1002"></defs><g id="SvgjsG1008" transform="matrix(0.9167,0,0,0.9167,11.995201032733917,11.996714464569095)"><svg xmlns="http://www.w3.org/2000/svg" enable-background="new 0 0 792 792" viewBox="0 0 792 792" width="288" height="288"><path d="M623.6,398.8l-27.5,42.8L494.5,283.3L453.2,356l-84.7-144.3l-74.1,142.5l-44.5-48.4l-77.3,146.2l-33.9-34.4L36,572
	l77.3-66.1l-6.4-15.8l33.9-34.5l9.5,47.5l26.5-13c0,0,6.4,47.5,6.4,51.2c0,3.7,22.2-0.9,22.2-0.9l59.3,40l-40.2-70.8l85.8-131.3
	l22.2,11.2l39.2-98.7l18,75.4l26.5-14l36,85.7l22.2-5.6l58.2,103.3l-22.2,42.8l81.5-72.6l15.9,4.7l38.1-43.8l8.5,48.4l27.5-10.2
	l26.5,47.5l16.9-4.7l30.7,32.6L623.6,398.8z M217.1,499.3l-30.7-41l11.6-27.9c0,0,13.8-41,14.8-36.3c1.1,4.7,19.1,22.3,19.1,19.6
	c0-2.8,26.5-66.1,26.5-66.1l23.3,49.3L217.1,499.3z M545.3,515.2l-74.1-138.7l29.6-36.3l30.7,74.5l16.9-18.6l40.2,54L545.3,515.2z" fill="#66ccff" class="color000 svgShape"></path></svg></g></svg>