<?xml version="1.0" encoding="utf-8"?>
<!-- Generator: Adobe Illustrator 21.1.0, SVG Export Plug-In . SVG Version: 6.00 Build 0)  -->
<svg version="1.1" id="Warstwa_1" xmlns="http://www.w3.org/2000/svg" xmlns:xlink="http://www.w3.org/1999/xlink" x="0px" y="0px"
	 viewBox="0 0 792 792" style="enable-background:new 0 0 792 792;" xml:space="preserve">
<path d="M674.6,431.9c0,0-7.7,3.5-13.9,0c-6.3-3.5-68.2-57.7-68.2-57.7l-25.7,12.5l-82.1-73c0,0-22.3,9-24.3,9
	c-2.1,0-63.3-50.1-63.3-50.1S317.7,354,317,356c-0.7,2.1-35.5-18.1-37.6-16c-2.1,2.1-60.5,63.3-60.5,63.3L194.6,386
	c0,0-73.7,61.2-89.7,77.2c-16,16-68.9,55.7-68.9,55.7s722.1,2.1,720-1.4C753.9,513.9,674.6,431.9,674.6,431.9z M181.4,461.8
	c-2.1,12.5-10.4,25-10.4,25s-4.2-24.3-8.3-24.3s-15.3,9.7-15.3,9.7s-16.7,5.6-19.5,7.7c-2.8,2.1-38.3,18.8-38.3,18.8
	s37.6-29.2,44.5-37.6c7-8.3,62.6-56.3,62.6-56.3s20.9,9,23.7,9c2.8,0-18.8,5.6-18.8,5.6l-7,7l13.2,7
	C207.8,433.3,183.5,449.3,181.4,461.8z M355.3,411l-20.2-7.7l-9.7,4.9l-29.9-2.8l-11.1-9l-11.1,5.6l-10.4,9.7l-7,11.1l-20.2,4.2
	l-17.4,7l21.6-22.3l-9-2.1l36.2-29.2v-9l16.7-13.2l32.7,11.8l10.4-1.4c0,0,23,28.5,27.1,29.9c4.2,1.4,21.6,8.3,21.6,8.3L355.3,411z
	 M545.9,399.9l-11.8,5.6l-23.7-18.8l-8.3,9l-20.9-8.3l-2.8,13.2l24.3,39l-52.2-38.3l-16-9.7l18.1-1.4l-17.4-24.3l-27.1-13.9
	l-3.5-12.5l-24.3,20.9l-4.9-16.7L347,355.3l19.5-19.5l4.9-16.7l26.4-24.3l59.8,50.1l23.7-11.8l98.8,84.2L545.9,399.9z M637,466.6
	l9.7-7l-62.6-56.3l16-1.4l53.6,41.7l14.6,2.8l55,57.7l-61.9-34.8L637,466.6z"/>
</svg>
