<?xml version="1.0" standalone="no"?>
<!DOCTYPE svg PUBLIC "-//W3C//DTD SVG 20010904//EN"
 "http://www.w3.org/TR/2001/REC-SVG-20010904/DTD/svg10.dtd">
<svg version="1.0" xmlns="http://www.w3.org/2000/svg"
 width="1280.000000pt" height="720.000000pt" viewBox="0 0 1280.000000 720.000000"
 preserveAspectRatio="xMidYMid meet">
<metadata>
Created by potrace 1.16, written by Peter Selinger 2001-2019
</metadata>
<g transform="translate(0.000000,720.000000) scale(0.100000,-0.100000)"
fill="#000000" stroke="none">
<path d="M6344 5860 c-38 -33 -122 -117 -186 -187 -93 -102 -135 -158 -204
-273 -165 -276 -286 -427 -361 -450 -72 -22 -86 -35 -186 -175 -60 -83 -146
-186 -213 -253 l-111 -114 -44 22 c-144 73 -267 186 -364 334 -45 68 -74 100
-129 141 -102 75 -312 212 -337 220 -37 12 -114 -76 -345 -397 -50 -69 -75
-94 -146 -140 -47 -31 -98 -72 -114 -91 -16 -20 -58 -105 -93 -189 -85 -204
-143 -317 -178 -349 -15 -15 -55 -36 -88 -48 -78 -29 -94 -45 -171 -173 -85
-141 -152 -226 -303 -386 -126 -134 -161 -162 -203 -162 -13 0 -82 18 -154 39
-178 54 -211 58 -265 33 -78 -35 -151 -112 -488 -516 -120 -144 -231 -273
-247 -288 -60 -55 -219 -145 -529 -299 -281 -139 -315 -158 -280 -159 58 0
193 35 293 76 120 49 262 125 492 262 244 146 300 198 501 463 132 174 282
339 310 339 5 0 17 -17 28 -37 28 -57 121 -309 121 -330 0 -20 -89 -111 -190
-192 -76 -62 -200 -181 -200 -193 0 -11 17 -10 25 2 3 5 83 61 178 123 195
129 229 160 303 272 28 44 61 88 71 97 31 29 104 56 185 69 l76 13 47 108 c56
127 178 357 295 552 l82 138 47 -6 c62 -8 90 -31 129 -105 51 -99 47 -143 -28
-285 -33 -63 -60 -122 -60 -131 0 -41 164 186 180 248 6 23 13 49 16 58 2 9
26 37 53 62 35 34 54 62 67 99 26 81 42 108 103 174 31 33 88 104 125 157 38
53 71 97 74 97 3 0 2 -29 -1 -65 -5 -51 -16 -83 -49 -144 -74 -136 -20 -112
77 34 66 99 74 119 87 223 5 46 32 154 59 240 27 87 63 204 81 262 18 58 34
107 35 109 13 19 177 -192 192 -246 6 -21 11 -70 11 -109 0 -97 17 -146 85
-243 71 -101 90 -151 114 -295 11 -62 25 -133 32 -157 l13 -44 6 45 c8 51 -4
201 -21 262 -6 23 -40 98 -76 167 -56 108 -66 136 -70 193 -6 72 1 118 18 118
6 0 26 -15 44 -33 27 -27 34 -43 40 -93 16 -135 42 -184 120 -224 60 -31 168
-137 224 -218 42 -63 70 -86 175 -151 30 -19 57 -40 60 -47 5 -12 -110 -87
-209 -137 -27 -14 -99 -35 -160 -47 -179 -36 -203 -56 -271 -225 -63 -157
-114 -246 -179 -311 -114 -114 -249 -159 -458 -152 -143 5 -193 21 -314 100
-106 69 -178 102 -209 94 -14 -4 -60 -41 -103 -84 -79 -78 -138 -154 -317
-407 -155 -220 -173 -235 -275 -235 -80 0 -161 26 -300 96 -71 35 -134 64
-141 64 -7 -1 -29 -26 -48 -58 -46 -74 -320 -349 -440 -442 -62 -47 -135 -92
-210 -127 -240 -113 -257 -122 -229 -122 93 -3 301 84 469 196 170 113 393
312 455 407 10 14 24 26 32 26 28 0 220 -68 285 -101 35 -17 94 -52 133 -76
l69 -45 15 21 c62 94 206 275 291 366 124 133 202 227 263 319 l46 69 82 -79
c133 -129 154 -160 195 -292 19 -64 40 -132 46 -150 13 -44 62 -98 109 -122
51 -26 65 -50 85 -137 11 -50 29 -93 54 -131 41 -61 86 -109 95 -100 3 3 -11
52 -31 109 -32 91 -37 119 -41 224 l-5 120 36 -35 c20 -19 64 -82 97 -140 74
-127 125 -178 251 -249 52 -29 106 -62 119 -73 23 -18 23 -20 6 -31 -290 -193
-486 -317 -542 -343 -90 -43 -55 -44 62 -3 199 70 544 237 653 317 105 76 253
197 277 227 40 48 148 223 200 324 25 47 51 92 59 100 7 8 40 25 71 36 32 12
88 34 124 50 52 21 75 26 103 21 82 -16 72 -118 -35 -337 -39 -81 -69 -155
-67 -164 2 -12 24 11 69 71 119 160 153 235 170 376 6 51 19 109 29 129 11 20
52 67 93 105 40 38 86 88 101 111 15 22 55 63 89 89 117 92 160 139 255 283
l95 145 33 -40 c19 -21 62 -87 96 -146 113 -193 161 -261 260 -365 102 -107
128 -148 172 -273 67 -185 122 -267 231 -345 112 -80 309 -155 409 -155 29 0
29 0 10 21 -10 12 -69 45 -130 74 -126 61 -132 68 -206 230 -56 122 -90 232
-86 275 2 26 12 38 59 66 30 19 68 36 84 37 27 2 31 -3 58 -68 82 -193 92
-210 158 -266 35 -30 93 -81 129 -115 104 -97 196 -172 237 -192 28 -14 68
-21 148 -25 213 -10 353 -76 663 -313 229 -176 129 -55 -251 304 -411 388
-435 409 -604 523 -124 84 -178 127 -220 178 -31 36 -104 112 -161 169 -116
114 -120 116 -218 81 -74 -26 -150 -22 -252 14 -145 50 -244 131 -417 336 -44
52 -100 109 -125 127 l-45 33 -81 -38 c-95 -45 -112 -65 -215 -246 -104 -183
-158 -236 -321 -314 -117 -56 -129 -65 -177 -124 -77 -97 -148 -148 -313 -221
-90 -40 -99 -52 -217 -281 -39 -77 -78 -148 -85 -157 -12 -17 -19 -16 -104 13
-114 38 -153 67 -226 164 -82 108 -111 134 -205 185 -95 51 -165 113 -173 154
-11 54 28 105 132 174 167 110 215 170 286 353 88 228 125 262 355 319 68 17
131 33 140 36 14 4 12 -15 -16 -133 -43 -177 -56 -206 -154 -337 -77 -102
-141 -210 -141 -237 0 -19 47 28 112 114 33 44 85 98 116 120 147 111 166 141
213 334 49 198 59 213 237 351 111 87 262 246 311 329 22 37 63 123 90 190 28
68 62 141 77 164 24 39 28 41 61 36 40 -7 68 -28 92 -72 13 -25 16 -62 16
-222 0 -105 3 -194 7 -198 22 -23 81 285 123 645 36 304 37 310 132 539 46
113 89 216 94 229 l9 23 23 -28 c13 -15 48 -64 77 -108 29 -44 106 -134 170
-200 64 -66 126 -133 137 -150 43 -62 56 -129 58 -310 2 -180 10 -216 65 -325
33 -65 121 -200 130 -200 4 0 -1 46 -11 103 -52 279 -59 334 -59 449 l0 119
27 -3 c38 -4 49 -32 67 -168 12 -93 27 -147 76 -280 33 -91 66 -176 73 -189 7
-14 36 -33 72 -48 33 -14 65 -30 72 -36 18 -19 81 -245 103 -376 11 -65 25
-133 31 -152 18 -51 68 -123 160 -229 45 -52 128 -164 184 -250 126 -190 173
-239 129 -134 -9 22 -56 125 -104 229 -48 105 -110 251 -138 325 -84 223 -172
531 -172 600 0 13 7 16 30 12 l30 -4 0 62 c0 62 0 63 20 45 32 -29 134 -182
199 -300 74 -133 96 -199 110 -334 16 -146 48 -298 74 -350 18 -35 36 -52 97
-86 74 -42 87 -56 155 -166 11 -19 33 -37 50 -42 17 -4 147 -12 290 -16 252
-7 262 -8 317 -33 35 -16 237 -167 530 -395 458 -357 475 -369 548 -391 41
-12 120 -28 175 -36 117 -17 385 -32 385 -21 0 12 -43 45 -80 62 -27 12 -65
15 -170 14 -199 -2 -324 33 -464 134 -183 130 -536 459 -678 631 -135 164
-146 169 -314 161 -160 -8 -217 3 -331 63 -246 131 -366 225 -422 330 -37 70
-38 68 56 196 33 43 78 106 100 140 37 54 96 108 218 200 73 55 69 60 62 -65
-5 -98 -10 -121 -37 -179 -38 -79 -55 -197 -26 -173 31 26 88 112 107 162 11
28 29 113 40 188 24 163 55 238 127 310 73 73 86 78 113 40 12 -17 53 -102 91
-188 37 -86 82 -178 100 -206 112 -178 158 -269 158 -314 0 -11 5 -32 11 -48
l11 -28 33 40 c33 39 34 39 54 21 11 -10 30 -48 42 -85 12 -36 87 -182 167
-324 l145 -258 69 -36 c84 -44 133 -96 274 -293 139 -195 205 -258 175 -167
-16 49 -98 164 -226 319 -138 167 -156 190 -190 258 -35 68 -42 153 -25 274
l12 86 42 0 c56 0 105 -15 134 -42 13 -13 57 -72 97 -133 87 -132 160 -212
331 -365 71 -63 169 -154 219 -201 147 -140 270 -229 353 -254 22 -6 23 -5 17
17 -4 12 -34 77 -66 143 -60 122 -82 195 -59 195 13 0 43 -31 108 -108 156
-187 707 -524 993 -605 99 -29 183 -41 174 -27 -3 6 -14 10 -25 10 -37 0 -158
43 -252 91 -249 124 -515 330 -848 655 -92 90 -205 189 -255 224 -159 111
-180 137 -298 357 -41 78 -90 165 -109 192 l-33 51 -134 0 -135 0 -101 100
c-116 114 -142 128 -305 166 -149 34 -197 60 -237 127 -42 71 -113 140 -261
254 -134 105 -196 168 -238 247 -15 28 -28 52 -29 54 -2 2 -19 -3 -38 -11 -51
-22 -109 -78 -195 -190 -96 -126 -123 -141 -247 -140 -153 0 -307 48 -378 117
-24 23 -69 87 -99 141 -31 55 -67 110 -80 122 -29 28 -81 46 -189 68 -187 38
-271 80 -308 153 -11 21 -29 90 -41 152 -33 174 -37 180 -188 252 -114 55
-135 69 -203 140 -91 92 -165 200 -278 399 -45 80 -103 169 -128 198 -51 58
-122 111 -151 111 -10 0 -50 -27 -88 -60z m53 -197 c-8 -112 -37 -194 -138
-398 -89 -180 -93 -192 -129 -386 -14 -71 -47 -122 -119 -179 -123 -98 -151
-135 -266 -350 -105 -197 -148 -260 -177 -260 -7 1 -36 33 -63 73 l-50 72
-108 35 c-59 19 -107 39 -107 43 0 5 42 59 93 121 51 61 131 159 176 219 46
59 116 138 156 176 74 70 161 129 172 117 12 -12 -16 -97 -46 -140 -32 -46
-47 -86 -33 -86 19 0 93 61 116 97 14 21 41 87 60 147 20 60 85 213 146 340
l111 231 102 103 c56 56 103 102 106 102 2 0 1 -35 -2 -77z m-2249 -769 c-17
-59 -32 -90 -64 -125 -37 -42 -44 -58 -73 -180 -36 -146 -78 -247 -160 -379
-105 -168 -185 -250 -299 -305 -55 -26 -147 -49 -181 -44 -24 4 -22 7 35 71
42 47 88 120 154 244 138 258 162 292 239 331 81 41 92 51 132 126 31 59 186
293 217 330 8 9 17 15 19 13 2 -2 -6 -39 -19 -82z"/>
<path d="M10846 1750 c-131 -15 -280 -58 -491 -140 -224 -88 -332 -122 -450
-141 -117 -19 -335 -15 -520 9 -227 29 -305 36 -305 25 0 -6 30 -22 68 -36
167 -65 391 -107 618 -114 253 -9 365 14 669 136 343 138 461 166 715 166 203
0 258 -9 550 -90 215 -59 304 -79 341 -73 62 8 -267 134 -517 197 -227 57
-497 81 -678 61z"/>
<path d="M2015 1723 c-332 -41 -644 -110 -836 -184 -167 -64 -85 -64 233 1
259 53 434 72 658 72 344 1 549 -43 919 -193 457 -187 600 -233 820 -263 300
-42 738 8 970 110 30 13 51 27 48 31 -10 10 -145 5 -285 -11 -215 -24 -301
-28 -458 -17 -280 19 -431 60 -824 221 -360 148 -537 201 -770 230 -78 9 -407
12 -475 3z"/>
<path d="M7070 1709 c-268 -19 -559 -67 -865 -143 -241 -60 -444 -122 -850
-261 -953 -327 -1051 -358 -1345 -429 -417 -102 -854 -148 -1185 -126 -242 16
-405 23 -405 17 0 -8 199 -54 311 -72 168 -27 384 -36 556 -25 283 19 515 61
996 180 353 88 560 149 1022 300 896 293 1264 373 1853 401 483 23 756 -26
1422 -253 501 -170 728 -244 937 -304 1101 -315 1850 -265 2295 154 69 65 168
185 168 204 0 6 -30 -7 -67 -28 -287 -159 -468 -231 -704 -278 -194 -39 -326
-49 -572 -43 -551 13 -937 100 -1947 437 -553 184 -794 244 -1095 269 -136 12
-356 12 -525 0z"/>
<path d="M6530 1243 c-349 -37 -614 -95 -1239 -269 -539 -151 -775 -208 -982
-239 -105 -16 -528 -65 -562 -65 -10 0 -15 -4 -12 -10 8 -13 293 -13 450 0
277 24 636 77 938 140 186 38 224 47 542 130 510 133 759 177 1050 187 416 14
714 -45 1506 -295 734 -233 988 -288 1459 -314 163 -9 245 -9 335 0 225 21
265 52 68 52 -243 0 -520 24 -760 65 -245 42 -481 110 -1063 305 -718 240
-833 271 -1125 305 -118 14 -504 19 -605 8z"/>
</g>
</svg>
