<?xml version="1.0" encoding="utf-8"?>
<!-- Generator: Adobe Illustrator 21.1.0, SVG Export Plug-In . SVG Version: 6.00 Build 0)  -->
<svg version="1.1" id="Warstwa_1" xmlns="http://www.w3.org/2000/svg" xmlns:xlink="http://www.w3.org/1999/xlink" x="0px" y="0px"
	 viewBox="0 0 792 792" style="enable-background:new 0 0 792 792;" xml:space="preserve">
<style type="text/css">
	.st0{fill-rule:evenodd;clip-rule:evenodd;}
</style>
<path class="st0" d="M324.9,334.6c2.2-1.4,1.7-2,3.4-3l26,29.6c5.1,6.8,4.1,3.7,5.8,12.5c1.1,5.7,2.6,4.3,10.5,8.5
	c13.4,7.2,14.2,4.7,15.3,12.1l3.2,20c0.3,1.6,1,2.3,0.9,3.8l22.6,8.9c3.1,11-0.3,16.1,5.7,20.2l29.9,20.8c5.2,3.5,9.9,6.8,14.9,10.4
	c1.3,0.9,3.5,2.8,3.8,0.2c0.2-1.5-1.8-2.6-2.7-3.6l-30.7-32.6c-1.7-1.7-1.4-1.4-1.6-4.7l-1-18.1c-3.8-2.6-24.2-10.4-25.8-12.7
	c-0.9-4.5-1.3-9.9-1.8-14.5c-1-8.7,0.9-6.6-5.3-10.7c-6-4-15-8-20-12.2c-0.1-4.1,0.8-10.4-1.1-13.4c-3.7-5.8-15.4-19.4-17.6-24.7
	c1.9,1.3,4.7,3.7,6.3,5.5l24,22c2.1,1.9,3.9,3.9,5.9,5.6c4.1,3.4,8.3,7.3,12,11c1.9,1.9,3.8,3.4,6.1,5.5l30,27.5
	c2.2,2,3.8,3.3,6,5.5c1.5,1.5,4.4,4.3,6.4,5.4c7.1-4.3,18.9-16.7,25.3-19.4c3.1,2.1,6.5,5.8,9.6,8.4c3.1,2.6,6.7,5.7,9.2,8.1
	c5.6,5.4,12.9,10.9,18.2,16.3c2.1-1.2,3.8-2.6,5.5-4.4c2.8,0.8,8,6.4,10.7,8.4c2,1.5,10.1,5.6,12.8,5.1c0.6-2.4-0.1-2.9-1.5-4.4
	c-6.2-6.5-11.6-13.9-16.9-21.1c-0.9-1.2-1.6-2.2-2.8-3.1l-3.9,3.9c-1.4-0.9-3.8-3.4-4.6-5.1c3.8-4.4,7.8-7.7,12.4-12.4
	c4.3-4.4,7.8-7.5,12.1-12.1c2.6-2.8,22.1-22.7,24.5-24l2.8,2.6c1,1.2,1.4,1.6,2.4,2.7l23.5,25.4c2.9,3.6,6.6,6.7,9.1,10.3
	c-3.6,4.3-17.3,15.3-21.9,19.3c-6.8,5.9-1.6,10.1-8.5,12.2c-3.4,1-13.4,3.8-15.8,5l-5.3,15.2l-17.5,3.8c-5.2,1.5-4.4,10-6.4,14.4
	c-1.1,2.4-22.7,15.9-26.1,18.2c-2.2,1.5-4,1.9-4.2,4.6c2.2,0.7,4.5-0.9,6.9-1.8l19.8-7.9c14.7-6,14.9-3,19.3-18.1l17.3-2.8
	c1.6-2.3,3.6-8.4,4.8-11.3c4.9-11.6,2.8-6.7,19.5-11.5c4.8-1.4,3-5.6,6.7-8.9c10.2-8.9,20.1-16.4,30.3-24.9c1.3-1.1,2.6-2.4,4.2-3.1
	c2.6,2.5,4.2,4.1,6.7,6.9c6.7,7.7,24.8,25.7,32.6,34.2c18.1,19.6,10,13,24.6,5.8c3.7,1.8,38.5,41.4,46.7,47.9H756v-0.4
	c-1.8-1.1-6.3-6.9-8.3-9.1c-7.5-8.1-53.2-61.6-56.2-63.5l-10.5,7l-50.2-51c-2.1-2.1-5.1-5.6-7.1-7.1c-3.1,2.3-10.3,9-12.7,10.2
	c-2.9-1.8-37.8-39.7-46.6-47.1c-2.1,1.2-41.5,40.2-44.6,43.3c-2.2,2.2-12.7,13-14.7,14.1L493,388.3c-2.3-2.1-3.8-3.3-6-5.5l-5.7-5
	l-3.2-2.5c-2.1,1.2-3.2,1.9-4.6,4.3c-1.4,0.2-1.9,0.9-2.7,2.3c-1.6,0.6-0.9,0.2-1.4,1.3c-1.9,0.9-13.2,11.3-15.4,13.6l-28.5-26.7
	c-2.5-2.5-4.6-4.5-7-6.8c-2.5-2.4-4.3-4-7-6.8l-14.1-13.5c-13.6-12-34.7-32.8-49.7-47c-1.3-1.2-2.3-2-3.6-3.3
	c-1.4-1.3-1.7-2.1-3.5-3.1c-6.3,3.9-79.2,84.4-93.8,99.8c-2.9,3.2-5.2,6.2-8.7,9.1c-2.5-1.1-5.7-4.3-8.2-6.1c-2.6-1.9-5-4-7.6-6.2
	c-3.2-2.6-12.8-10.6-15.8-12.2c-2.4,1.5-5.7,4.9-8,6.8c-2.5,2.2-5.7,4.9-7.9,7l-27.2,24.6c-3.8,3.2-17.1,15.9-19.6,17.3
	c-4.1-2.7-6-7-10.4-9.5c-2.5,1.4-4.5,3.4-6.6,5.1l-54.9,44.7c-4.3,3.5-7.8,6.3-12.1,9.8c-4,3.2-22.9,18.1-23.7,20.2
	c4.6-1.2,14.3,0,19.5,0.1c6.6,0.1,6.2-1.3,13.1-6.8l64.6-52.3c4.3,2.4,10.3,8.7,13.2,9.6c4.2-2.8,42.1-38.3,44.7-39.7
	c-2.3,3.3-12.7,17.6-13.2,20.1c2.4,1,5.6,4.1,7.6,6.1c-1,2-14,12.8-15.8,15.6l3.1,5.9l-37.7,34.1c-2.1,2.1-1.5,2.5-0.4,2.7
	c0.1,0,0.3,0.1,0.4,0.1c1.8,0.3,1.3-0.1,5.9-1.8c1.7-0.6,4.1-1.1,5.6-2.3l5.2-2.1c5-0.6,9.8-4.3,12.5-6.7c8.1-7,22.9-17.3,30.5-24.1
	c0.1-0.1,0.2-0.2,0.3-0.3l0.6-0.6c0-0.2,0.2-0.2,0.3-0.3c-1.8-2.8-4.3-4.2-5.6-7.1l2.2-1.9c1.2-0.9-0.2,0.4,1.1-0.9
	c1-1,0.1-0.1,0.8-1.1c1.3-0.6,7.6-6.9,9.6-8.5c-0.4-2.1-4.1-7.1-5.3-9.3c0.6-1.5,17.7-21.3,20.3-23.2c1.7,1,20.6,20.5,27,25.5
	c3.2,2.5,5.7,6.5,9.3,7.9l5.1-3.3c2.5,2.3,3.6,4,5.7,6.3l11.4,12.8c1.8,2.1,3.6,4,5.4,6.1c3.8,4.2,7.6,9.1,12.1,11.5l13.5,7.3
	c5.5,1.2-2.1-6.7-3.3-8.3l-18.5-23.5c-2.6-3.2-21.7-29.5-24-31.6c-2,1.3-4.5,4-6.3,4.9c-1.6-1.4-3.3-3.1-3.9-5.1
	C276.6,388.9,300.6,361.4,324.9,334.6L324.9,334.6z"/>
</svg>
