<?xml version="1.0" standalone="no"?>
<!DOCTYPE svg PUBLIC "-//W3C//DTD SVG 20010904//EN"
 "http://www.w3.org/TR/2001/REC-SVG-20010904/DTD/svg10.dtd">
<svg version="1.0" xmlns="http://www.w3.org/2000/svg"
 width="1208.000000pt" height="510.000000pt" viewBox="0 0 1208.000000 510.000000"
 preserveAspectRatio="xMidYMid meet">
<metadata>
Created by potrace 1.16, written by Peter Selinger 2001-2019
</metadata>
<g transform="translate(0.000000,510.000000) scale(0.100000,-0.100000)"
fill="#000000" stroke="none">
<path d="M5011 3743 c-188 -191 -1110 -1184 -1444 -1555 -49 -54 -93 -98 -99
-98 -9 0 -88 61 -332 258 -173 139 -171 138 -198 119 -26 -16 -221 -190 -593
-527 -137 -124 -283 -255 -324 -292 l-76 -67 -76 75 c-42 40 -84 74 -92 74 -9
0 -40 -19 -69 -43 -560 -456 -1014 -826 -1177 -957 -198 -159 -331 -275 -331
-289 0 -3 90 -6 199 -6 l199 0 40 30 c22 17 286 230 587 473 300 244 552 442
559 439 6 -3 46 -32 87 -65 116 -92 108 -90 176 -33 32 26 182 161 333 299
151 137 276 249 278 247 1 -1 -36 -59 -83 -129 -47 -71 -85 -131 -85 -136 0
-4 17 -19 39 -34 21 -15 48 -37 60 -50 l22 -23 -120 -114 c-66 -62 -123 -119
-126 -126 -2 -8 5 -34 17 -58 l22 -45 -24 -24 c-14 -13 -149 -135 -300 -271
-151 -136 -281 -254 -288 -263 -41 -52 16 -55 136 -6 48 19 119 46 157 60 94
32 114 44 225 134 52 42 163 128 245 190 167 127 235 187 235 204 0 7 -14 25
-31 42 -17 16 -35 37 -41 48 -10 19 0 30 145 158 31 28 57 58 57 68 0 13 -23
56 -73 136 -7 12 198 258 279 336 l39 37 191 -182 c303 -289 368 -347 386
-347 10 0 32 9 50 20 18 11 36 20 39 20 3 0 104 -110 223 -245 120 -135 239
-264 266 -287 89 -80 330 -197 330 -160 0 16 -44 77 -195 267 -87 110 -252
325 -367 478 -115 152 -212 277 -217 277 -4 0 -29 -17 -55 -37 l-48 -37 -30
33 c-25 28 -27 35 -16 49 77 97 1138 1285 1178 1318 l27 24 224 -256 c123
-140 234 -271 246 -291 11 -19 27 -65 33 -100 8 -39 21 -74 34 -87 11 -13 91
-55 176 -96 85 -40 165 -83 178 -95 20 -19 28 -50 57 -228 19 -114 38 -215 43
-224 6 -11 83 -47 188 -88 204 -81 186 -62 203 -225 5 -52 15 -107 22 -122 8
-19 110 -95 318 -240 168 -116 346 -240 396 -275 49 -35 96 -62 105 -61 48 10
10 55 -483 575 l-58 61 -11 174 c-5 95 -11 174 -13 176 -2 2 -83 39 -181 83
-97 44 -189 88 -204 99 -32 23 -36 39 -50 198 -18 191 -11 174 -98 229 -42 27
-108 67 -147 88 -38 21 -92 53 -120 72 l-50 33 -1 93 c0 57 -5 101 -14 117 -7
13 -69 98 -137 188 -67 90 -123 168 -123 173 0 9 227 -195 455 -410 82 -77
200 -185 650 -596 138 -126 285 -262 328 -302 43 -40 87 -73 96 -73 10 0 92
62 183 138 91 75 179 145 196 154 l30 18 189 -168 c300 -266 404 -357 412
-360 4 -1 26 14 49 34 48 41 34 46 147 -50 70 -59 181 -120 243 -132 30 -6 32
-5 32 22 0 22 -17 49 -66 104 -36 41 -111 135 -166 208 -56 72 -106 132 -111
132 -6 0 -24 -12 -39 -27 l-28 -27 -30 29 c-16 16 -30 34 -30 39 0 14 762 776
775 776 9 0 465 -487 573 -611 l32 -37 -68 -63 c-37 -35 -123 -111 -191 -168
-124 -105 -137 -122 -167 -216 -12 -37 -40 -52 -198 -102 l-119 -38 -42 -120
c-29 -82 -48 -121 -61 -127 -11 -4 -75 -19 -144 -34 -69 -14 -133 -30 -142
-35 -26 -14 -43 -54 -63 -143 -12 -58 -24 -85 -43 -104 -15 -13 -125 -89 -244
-169 -162 -106 -218 -148 -218 -163 0 -15 7 -20 24 -20 36 0 607 228 634 254
30 27 58 80 73 140 6 25 15 48 18 51 4 2 69 14 144 26 155 24 135 8 196 162
39 97 65 150 83 165 8 6 66 22 130 36 64 13 126 30 138 36 12 6 32 35 45 64
16 36 42 68 86 107 110 95 499 409 508 409 4 0 34 -28 66 -62 57 -61 546 -576
691 -727 85 -88 99 -91 174 -32 104 82 92 84 206 -32 55 -56 169 -176 254
-267 85 -91 206 -218 269 -282 l116 -118 152 0 c141 0 174 6 142 26 -6 3 -198
221 -427 483 -493 563 -590 671 -605 671 -6 0 -47 -24 -90 -52 l-80 -53 -462
470 c-432 439 -464 469 -481 455 -11 -8 -57 -46 -103 -85 l-83 -69 -378 384
-377 385 -149 -142 c-82 -77 -165 -158 -184 -178 -19 -20 -168 -166 -330 -325
l-295 -288 -112 91 c-61 51 -148 126 -194 167 -139 125 -124 115 -156 95 -16
-10 -44 -34 -64 -54 -19 -20 -66 -63 -105 -95 -38 -33 -97 -87 -131 -120 l-63
-60 -27 25 c-98 89 -403 377 -603 569 -129 124 -296 282 -370 350 -142 131
-236 221 -597 568 -122 116 -229 212 -239 212 -10 0 -61 -44 -113 -97z"/>
</g>
</svg>
